<svg width="19" height="19" viewBox="0 0 19 19" fill="none" xmlns="http://www.w3.org/2000/svg">
<path d="M17.5996 0.600006H1.59961C1.33439 0.600006 1.08004 0.705363 0.892503 0.892899C0.704966 1.08044 0.599609 1.33479 0.599609 1.60001V17.6C0.599609 17.8652 0.704966 18.1196 0.892503 18.3071C1.08004 18.4946 1.33439 18.6 1.59961 18.6H10.2146V11.64H7.87661V8.915H10.2146V6.915C10.2146 4.59001 11.6346 3.32301 13.7146 3.32301C14.4136 3.32101 15.1136 3.35701 15.8096 3.43001V5.85001H14.3746C13.2466 5.85001 13.0266 6.38801 13.0266 7.175V8.91001H15.7236L15.3736 11.635H13.0256V18.6H17.5996C17.8648 18.6 18.1192 18.4946 18.3067 18.3071C18.4943 18.1196 18.5996 17.8652 18.5996 17.6V1.60001C18.5996 1.33479 18.4943 1.08044 18.3067 0.892899C18.1192 0.705363 17.8648 0.600006 17.5996 0.600006Z" fill="#1E1E1E"/>
</svg>
