<svg width="16" height="24" viewBox="0 0 16 24" fill="none" xmlns="http://www.w3.org/2000/svg">
<path d="M8 0.013504C3.857 0.013504 0.5 3.357 0.5 7.4985C0.5 14.6595 8 23.9985 8 23.9985C8 23.9985 15.5 14.658 15.5 7.4985C15.5 3.3585 12.143 0.013504 8 0.013504ZM8 11.64C6.92587 11.64 5.89574 11.2133 5.13622 10.4538C4.3767 9.69427 3.95 8.66413 3.95 7.59C3.95 6.51588 4.3767 5.48574 5.13622 4.72622C5.89574 3.9667 6.92587 3.54 8 3.54C9.07413 3.54 10.1043 3.9667 10.8638 4.72622C11.6233 5.48574 12.05 6.51588 12.05 7.59C12.05 8.66413 11.6233 9.69427 10.8638 10.4538C10.1043 11.2133 9.07413 11.64 8 11.64Z" fill="#80A529"/>
</svg>
