<svg width="221" height="49" viewBox="0 0 221 49" fill="none" xmlns="http://www.w3.org/2000/svg">
<path d="M3.8 22C3.43333 22 3.125 21.875 2.875 21.625C2.625 21.375 2.5 21.0667 2.5 20.7V3.775C2.5 3.39167 2.625 3.08333 2.875 2.85C3.125 2.6 3.43333 2.475 3.8 2.475H14.4C14.7333 2.475 15.0083 2.59167 15.225 2.825C15.4583 3.04167 15.575 3.33333 15.575 3.7C15.575 4.03333 15.4583 4.31667 15.225 4.55C15.0083 4.76667 14.7333 4.875 14.4 4.875H5.1V10.5H10.8C12.05 10.5 13.1583 10.7417 14.125 11.225C15.0917 11.6917 15.8417 12.35 16.375 13.2C16.925 14.0333 17.2 15 17.2 16.1C17.2 17.25 16.925 18.2667 16.375 19.15C15.8417 20.0333 15.0917 20.7333 14.125 21.25C13.1583 21.75 12.05 22 10.8 22H3.8ZM5.1 19.6H10.8C11.9333 19.6 12.8667 19.3083 13.6 18.725C14.3333 18.125 14.7 17.25 14.7 16.1C14.7 14.95 14.3333 14.1083 13.6 13.575C12.8667 13.025 11.9333 12.75 10.8 12.75H5.1V19.6ZM26.5291 22.1C25.3124 22.1 24.2208 21.8 23.2541 21.2C22.2874 20.5833 21.5208 19.7583 20.9541 18.725C20.4041 17.675 20.1291 16.4917 20.1291 15.175C20.1291 13.8583 20.4291 12.675 21.0291 11.625C21.6458 10.575 22.4708 9.75 23.5041 9.15C24.5541 8.53333 25.7291 8.225 27.0291 8.225C28.3291 8.225 29.4958 8.53333 30.5291 9.15C31.5624 9.75 32.3791 10.575 32.9791 11.625C33.5958 12.675 33.9041 13.8583 33.9041 15.175V20.75C33.9041 21.1167 33.7791 21.425 33.5291 21.675C33.2958 21.9083 32.9958 22.025 32.6291 22.025C32.2624 22.025 31.9541 21.9083 31.7041 21.675C31.4708 21.425 31.3541 21.1167 31.3541 20.75V19.825C30.7708 20.525 30.0624 21.0833 29.2291 21.5C28.4124 21.9 27.5124 22.1 26.5291 22.1ZM27.0291 19.85C27.8791 19.85 28.6374 19.65 29.3041 19.25C29.9708 18.8333 30.4958 18.275 30.8791 17.575C31.2624 16.8583 31.4541 16.0583 31.4541 15.175C31.4541 14.275 31.2624 13.475 30.8791 12.775C30.4958 12.0583 29.9708 11.5 29.3041 11.1C28.6374 10.6833 27.8791 10.475 27.0291 10.475C26.1958 10.475 25.4374 10.6833 24.7541 11.1C24.0874 11.5 23.5541 12.0583 23.1541 12.775C22.7708 13.475 22.5791 14.275 22.5791 15.175C22.5791 16.0583 22.7708 16.8583 23.1541 17.575C23.5541 18.275 24.0874 18.8333 24.7541 19.25C25.4374 19.65 26.1958 19.85 27.0291 19.85ZM38.9242 22C38.5576 22 38.2576 21.8833 38.0242 21.65C37.8076 21.4 37.6992 21.0917 37.6992 20.725V9.6C37.6992 9.21667 37.8076 8.90833 38.0242 8.675C38.2576 8.44167 38.5576 8.325 38.9242 8.325C39.3076 8.325 39.6159 8.44167 39.8492 8.675C40.0826 8.90833 40.1992 9.21667 40.1992 9.6V13.775H47.9242V9.6C47.9242 9.21667 48.0409 8.90833 48.2742 8.675C48.5242 8.44167 48.8326 8.325 49.1992 8.325C49.5826 8.325 49.8826 8.44167 50.0992 8.675C50.3159 8.90833 50.4242 9.21667 50.4242 9.6V20.725C50.4242 21.0917 50.3159 21.4 50.0992 21.65C49.8826 21.8833 49.5826 22 49.1992 22C48.8326 22 48.5242 21.8833 48.2742 21.65C48.0409 21.4 47.9242 21.0917 47.9242 20.725V16.025H40.1992V20.725C40.1992 21.0917 40.0826 21.4 39.8492 21.65C39.6159 21.8833 39.3076 22 38.9242 22ZM54.7105 21.7C54.4439 21.4667 54.3189 21.2083 54.3355 20.925C54.3522 20.6417 54.4522 20.3833 54.6355 20.15L57.1605 16.85C56.2939 16.5833 55.6022 16.1083 55.0855 15.425C54.5689 14.7417 54.3105 13.925 54.3105 12.975C54.3105 12.0917 54.5189 11.3 54.9355 10.6C55.3689 9.9 55.9522 9.35 56.6855 8.95C57.4355 8.53333 58.2939 8.325 59.2605 8.325H63.5855C63.9689 8.325 64.2772 8.44167 64.5105 8.675C64.7439 8.90833 64.8605 9.21667 64.8605 9.6V20.75C64.8439 21.1167 64.7189 21.4167 64.4855 21.65C64.2689 21.8833 63.9689 22 63.5855 22C63.2355 22 62.9439 21.8833 62.7105 21.65C62.4772 21.4 62.3605 21.0917 62.3605 20.725V17.425H60.0105L56.7355 21.5C56.4522 21.8667 56.1022 22.0417 55.6855 22.025C55.2689 22.0083 54.9439 21.9 54.7105 21.7ZM59.2605 15.325H62.3605V10.7H59.2605C58.5939 10.7 58.0105 10.9167 57.5105 11.35C57.0105 11.7667 56.7605 12.3083 56.7605 12.975C56.7605 13.675 57.0105 14.2417 57.5105 14.675C58.0105 15.1083 58.5939 15.325 59.2605 15.325ZM76.2135 22C75.7468 22 75.3885 21.8 75.1385 21.4C74.8885 21 74.8635 20.575 75.0635 20.125L82.0885 3.35C82.3385 2.76667 82.7468 2.475 83.3135 2.475C83.9135 2.475 84.3218 2.76667 84.5385 3.35L91.5885 20.175C91.7718 20.6417 91.7468 21.0667 91.5135 21.45C91.2968 21.8167 90.9468 22 90.4635 22C90.2135 22 89.9718 21.9333 89.7385 21.8C89.5218 21.65 89.3635 21.45 89.2635 21.2L83.4135 6.775L77.4135 21.2C77.2968 21.4667 77.1218 21.6667 76.8885 21.8C76.6718 21.9333 76.4468 22 76.2135 22ZM93.1609 28C92.8609 28 92.5526 27.9583 92.2359 27.875C91.9359 27.7917 91.6359 27.6667 91.3359 27.5C90.9693 27.2833 90.7276 27.0167 90.6109 26.7C90.4943 26.3833 90.5443 26.075 90.7609 25.775C90.9609 25.4917 91.2026 25.3167 91.4859 25.25C91.7693 25.1833 92.0693 25.2417 92.3859 25.425C92.7359 25.625 93.0693 25.725 93.3859 25.725C94.4026 25.725 95.4026 24.6333 96.3859 22.45L97.1859 20.625L91.5859 9.975C91.4193 9.65833 91.3943 9.35833 91.5109 9.075C91.6443 8.775 91.8693 8.55833 92.1859 8.425C92.5026 8.29167 92.7943 8.28333 93.0609 8.4C93.3443 8.5 93.5693 8.70833 93.7359 9.025L98.3359 18.05L102.361 8.95C102.511 8.61667 102.736 8.39167 103.036 8.275C103.353 8.15833 103.669 8.175 103.986 8.325C104.269 8.44167 104.453 8.65833 104.536 8.975C104.619 9.275 104.578 9.6 104.411 9.95L98.3859 23.45C97.7859 24.8 97.0193 25.8917 96.0859 26.725C95.1693 27.575 94.1943 28 93.1609 28ZM108.357 22.025C107.991 22.025 107.699 21.9083 107.482 21.675C107.266 21.425 107.157 21.1167 107.157 20.75V9.6C107.157 9.21667 107.266 8.90833 107.482 8.675C107.699 8.44167 107.991 8.325 108.357 8.325C108.741 8.325 109.049 8.44167 109.282 8.675C109.532 8.90833 109.657 9.21667 109.657 9.6V13.775H111.557L116.082 8.725C116.299 8.49167 116.599 8.35833 116.982 8.325C117.382 8.29167 117.691 8.375 117.907 8.575C118.157 8.80833 118.299 9.075 118.332 9.375C118.366 9.65833 118.274 9.91667 118.057 10.15L113.532 15L118.332 20.15C118.549 20.3667 118.657 20.625 118.657 20.925C118.657 21.2083 118.524 21.4667 118.257 21.7C118.041 21.9 117.732 22 117.332 22C116.949 21.9833 116.649 21.8667 116.432 21.65L111.282 16.125H109.657V20.75C109.657 21.1167 109.532 21.425 109.282 21.675C109.049 21.9083 108.741 22.025 108.357 22.025ZM126.736 22.1C125.386 22.1 124.194 21.8083 123.161 21.225C122.128 20.625 121.311 19.8083 120.711 18.775C120.128 17.725 119.836 16.525 119.836 15.175C119.836 13.8083 120.128 12.6083 120.711 11.575C121.311 10.525 122.128 9.70833 123.161 9.125C124.194 8.525 125.386 8.225 126.736 8.225C128.069 8.225 129.253 8.525 130.286 9.125C131.319 9.70833 132.128 10.525 132.711 11.575C133.311 12.6083 133.611 13.8083 133.611 15.175C133.611 16.525 133.319 17.725 132.736 18.775C132.153 19.8083 131.344 20.625 130.311 21.225C129.278 21.8083 128.086 22.1 126.736 22.1ZM126.736 19.85C127.603 19.85 128.369 19.65 129.036 19.25C129.703 18.85 130.219 18.3 130.586 17.6C130.969 16.9 131.161 16.0917 131.161 15.175C131.161 14.2583 130.969 13.45 130.586 12.75C130.219 12.0333 129.703 11.475 129.036 11.075C128.369 10.675 127.603 10.475 126.736 10.475C125.869 10.475 125.103 10.675 124.436 11.075C123.769 11.475 123.244 12.0333 122.861 12.75C122.478 13.45 122.286 14.2583 122.286 15.175C122.286 16.0917 122.478 16.9 122.861 17.6C123.244 18.3 123.769 18.85 124.436 19.25C125.103 19.65 125.869 19.85 126.736 19.85ZM138.681 22C138.315 22 138.006 21.8833 137.756 21.65C137.523 21.4 137.406 21.0917 137.406 20.725V9.6C137.406 9.21667 137.523 8.90833 137.756 8.675C138.006 8.44167 138.315 8.325 138.681 8.325C139.215 8.325 139.665 8.58333 140.031 9.1L145.206 16.575L150.381 9.1C150.748 8.58333 151.198 8.325 151.731 8.325C152.115 8.325 152.423 8.44167 152.656 8.675C152.89 8.90833 153.006 9.21667 153.006 9.6V20.725C153.006 21.0917 152.89 21.4 152.656 21.65C152.423 21.8833 152.115 22 151.731 22C151.365 22 151.056 21.8833 150.806 21.65C150.573 21.4 150.456 21.0917 150.456 20.725V12.75L146.506 18.325C146.09 18.9083 145.64 19.2 145.156 19.2C144.673 19.1833 144.231 18.8917 143.831 18.325L139.956 12.75V20.725C139.956 21.0917 139.84 21.4 139.606 21.65C139.373 21.8833 139.065 22 138.681 22ZM163.699 22.1C162.349 22.1 161.157 21.8083 160.124 21.225C159.091 20.625 158.274 19.8083 157.674 18.775C157.091 17.725 156.799 16.525 156.799 15.175C156.799 13.8083 157.091 12.6083 157.674 11.575C158.274 10.525 159.091 9.70833 160.124 9.125C161.157 8.525 162.349 8.225 163.699 8.225C165.032 8.225 166.216 8.525 167.249 9.125C168.282 9.70833 169.091 10.525 169.674 11.575C170.274 12.6083 170.574 13.8083 170.574 15.175C170.574 16.525 170.282 17.725 169.699 18.775C169.116 19.8083 168.307 20.625 167.274 21.225C166.241 21.8083 165.049 22.1 163.699 22.1ZM163.699 19.85C164.566 19.85 165.332 19.65 165.999 19.25C166.666 18.85 167.182 18.3 167.549 17.6C167.932 16.9 168.124 16.0917 168.124 15.175C168.124 14.2583 167.932 13.45 167.549 12.75C167.182 12.0333 166.666 11.475 165.999 11.075C165.332 10.675 164.566 10.475 163.699 10.475C162.832 10.475 162.066 10.675 161.399 11.075C160.732 11.475 160.207 12.0333 159.824 12.75C159.441 13.45 159.249 14.2583 159.249 15.175C159.249 16.0917 159.441 16.9 159.824 17.6C160.207 18.3 160.732 18.85 161.399 19.25C162.066 19.65 162.832 19.85 163.699 19.85ZM175.644 27.85C175.277 27.85 174.969 27.725 174.719 27.475C174.486 27.2417 174.369 26.9417 174.369 26.575V15.175C174.386 13.8583 174.694 12.675 175.294 11.625C175.894 10.575 176.711 9.75 177.744 9.15C178.777 8.53333 179.944 8.225 181.244 8.225C182.561 8.225 183.736 8.53333 184.769 9.15C185.802 9.75 186.619 10.575 187.219 11.625C187.836 12.675 188.144 13.8583 188.144 15.175C188.144 16.4917 187.861 17.675 187.294 18.725C186.744 19.7583 185.986 20.5833 185.019 21.2C184.052 21.8 182.961 22.1 181.744 22.1C180.761 22.1 179.852 21.9 179.019 21.5C178.202 21.0833 177.502 20.525 176.919 19.825V26.575C176.919 26.9417 176.802 27.2417 176.569 27.475C176.336 27.725 176.027 27.85 175.644 27.85ZM181.244 19.85C182.094 19.85 182.852 19.65 183.519 19.25C184.186 18.8333 184.711 18.275 185.094 17.575C185.494 16.8583 185.694 16.0583 185.694 15.175C185.694 14.275 185.494 13.475 185.094 12.775C184.711 12.0583 184.186 11.5 183.519 11.1C182.852 10.6833 182.094 10.475 181.244 10.475C180.411 10.475 179.652 10.6833 178.969 11.1C178.302 11.5 177.777 12.0583 177.394 12.775C177.011 13.475 176.819 14.275 176.819 15.175C176.819 16.0583 177.011 16.8583 177.394 17.575C177.777 18.275 178.302 18.8333 178.969 19.25C179.652 19.65 180.411 19.85 181.244 19.85ZM198.122 22.225C196.872 22.225 195.781 22 194.847 21.55C193.931 21.1 193.214 20.4667 192.697 19.65C192.197 18.8167 191.947 17.8417 191.947 16.725V9.575C191.981 9.225 192.114 8.93333 192.347 8.7C192.597 8.45 192.889 8.325 193.222 8.325C193.589 8.325 193.889 8.45 194.122 8.7C194.372 8.93333 194.497 9.23333 194.497 9.6V12.4H198.597C199.681 12.4 200.647 12.5917 201.497 12.975C202.364 13.3417 203.047 13.8833 203.547 14.6C204.047 15.3 204.297 16.1417 204.297 17.125C204.297 18.1083 204.039 18.9833 203.522 19.75C203.022 20.5167 202.314 21.125 201.397 21.575C200.481 22.0083 199.389 22.225 198.122 22.225ZM198.097 19.875C199.164 19.875 200.056 19.65 200.772 19.2C201.489 18.7333 201.847 18.0417 201.847 17.125C201.847 16.2583 201.539 15.6167 200.922 15.2C200.306 14.7667 199.531 14.55 198.597 14.55H194.497V16.675C194.497 17.275 194.656 17.8167 194.972 18.3C195.289 18.7833 195.714 19.1667 196.247 19.45C196.797 19.7333 197.414 19.875 198.097 19.875ZM214.095 22.1C212.712 22.1 211.478 21.8083 210.395 21.225C209.328 20.625 208.487 19.8083 207.87 18.775C207.27 17.725 206.97 16.525 206.97 15.175C206.97 13.8083 207.253 12.6083 207.82 11.575C208.403 10.525 209.203 9.70833 210.22 9.125C211.237 8.525 212.403 8.225 213.72 8.225C215.02 8.225 216.137 8.51667 217.07 9.1C218.003 9.66667 218.712 10.4583 219.195 11.475C219.695 12.475 219.945 13.6333 219.945 14.95C219.945 15.2667 219.837 15.5333 219.62 15.75C219.403 15.95 219.128 16.05 218.795 16.05H209.295C209.478 17.2 210.003 18.1417 210.87 18.875C211.753 19.5917 212.828 19.95 214.095 19.95C214.612 19.95 215.137 19.8583 215.67 19.675C216.22 19.475 216.662 19.25 216.995 19C217.245 18.8167 217.512 18.725 217.795 18.725C218.095 18.7083 218.353 18.7917 218.57 18.975C218.853 19.225 219.003 19.5 219.02 19.8C219.037 20.1 218.903 20.3583 218.62 20.575C218.053 21.025 217.345 21.3917 216.495 21.675C215.662 21.9583 214.862 22.1 214.095 22.1ZM213.72 10.375C212.487 10.375 211.495 10.7167 210.745 11.4C209.995 12.0833 209.52 12.9667 209.32 14.05H217.645C217.495 12.9833 217.087 12.1083 216.42 11.425C215.753 10.725 214.853 10.375 213.72 10.375Z" fill="white"/>
<path d="M2.538 44C2.274 44 2.052 43.916 1.872 43.748C1.704 43.568 1.62 43.346 1.62 43.082V35.054C1.644 34.79 1.74 34.574 1.908 34.406C2.076 34.238 2.286 34.154 2.538 34.154H2.556H7.056C7.62 34.154 8.118 34.268 8.55 34.496C8.994 34.712 9.342 35.018 9.594 35.414C9.846 35.798 9.972 36.242 9.972 36.746C9.972 37.214 9.846 37.634 9.594 38.006C9.354 38.366 9.03 38.642 8.622 38.834C9.15 39.062 9.564 39.38 9.864 39.788C10.176 40.196 10.332 40.67 10.332 41.21C10.332 41.75 10.188 42.23 9.9 42.65C9.612 43.07 9.21 43.4 8.694 43.64C8.19 43.88 7.608 44 6.948 44H2.538ZM7.056 35.846H3.456V38.168H7.236C7.536 38.168 7.782 38.054 7.974 37.826C8.166 37.586 8.262 37.286 8.262 36.926C8.262 36.614 8.148 36.356 7.92 36.152C7.692 35.948 7.404 35.846 7.056 35.846ZM3.456 42.29H6.948C7.428 42.29 7.818 42.176 8.118 41.948C8.418 41.708 8.568 41.402 8.568 41.03C8.568 40.634 8.418 40.31 8.118 40.058C7.818 39.806 7.428 39.68 6.948 39.68H3.456V42.29ZM17.4842 44C17.1482 44 16.8902 43.856 16.7102 43.568C16.5302 43.28 16.5122 42.974 16.6562 42.65L21.7142 30.572C21.8942 30.152 22.1882 29.942 22.5962 29.942C23.0282 29.942 23.3222 30.152 23.4782 30.572L28.5542 42.686C28.6862 43.022 28.6622 43.328 28.4822 43.604C28.3142 43.868 28.0562 44 27.7082 44C27.5282 44 27.3542 43.952 27.1862 43.856C27.0302 43.748 26.9162 43.604 26.8442 43.424L25.8362 40.904H19.3742L18.3482 43.424C18.2642 43.616 18.1382 43.76 17.9702 43.856C17.8142 43.952 17.6522 44 17.4842 44ZM20.0042 39.356H25.2062L22.6322 32.948L20.0042 39.356ZM31.4364 48.212C31.1724 48.212 30.9504 48.122 30.7704 47.942C30.6024 47.774 30.5184 47.558 30.5184 47.294V39.086C30.5304 38.138 30.7524 37.286 31.1844 36.53C31.6164 35.774 32.2044 35.18 32.9484 34.748C33.6924 34.304 34.5324 34.082 35.4684 34.082C36.4164 34.082 37.2624 34.304 38.0064 34.748C38.7504 35.18 39.3384 35.774 39.7704 36.53C40.2144 37.286 40.4364 38.138 40.4364 39.086C40.4364 40.034 40.2324 40.886 39.8244 41.642C39.4284 42.386 38.8824 42.98 38.1864 43.424C37.4904 43.856 36.7044 44.072 35.8284 44.072C35.1204 44.072 34.4664 43.928 33.8664 43.64C33.2784 43.34 32.7744 42.938 32.3544 42.434V47.294C32.3544 47.558 32.2704 47.774 32.1024 47.942C31.9344 48.122 31.7124 48.212 31.4364 48.212ZM35.4684 42.452C36.0804 42.452 36.6264 42.308 37.1064 42.02C37.5864 41.72 37.9644 41.318 38.2404 40.814C38.5284 40.298 38.6724 39.722 38.6724 39.086C38.6724 38.438 38.5284 37.862 38.2404 37.358C37.9644 36.842 37.5864 36.44 37.1064 36.152C36.6264 35.852 36.0804 35.702 35.4684 35.702C34.8684 35.702 34.3224 35.852 33.8304 36.152C33.3504 36.44 32.9724 36.842 32.6964 37.358C32.4204 37.862 32.2824 38.438 32.2824 39.086C32.2824 39.722 32.4204 40.298 32.6964 40.814C32.9724 41.318 33.3504 41.72 33.8304 42.02C34.3224 42.308 34.8684 42.452 35.4684 42.452ZM42.3142 44C42.0742 44 41.8822 43.928 41.7382 43.784C41.6062 43.628 41.5402 43.442 41.5402 43.226C41.5402 43.01 41.6242 42.794 41.7922 42.578L44.5822 39.086L41.6122 35.576C41.4562 35.384 41.3722 35.18 41.3602 34.964C41.3482 34.736 41.4082 34.544 41.5402 34.388C41.6722 34.232 41.8702 34.154 42.1342 34.154C42.4222 34.154 42.6502 34.256 42.8182 34.46L45.7702 37.988L48.4162 34.46C48.5122 34.34 48.6142 34.262 48.7222 34.226C48.8302 34.178 48.9502 34.154 49.0822 34.154C49.3462 34.154 49.5442 34.238 49.6762 34.406C49.8082 34.562 49.8682 34.754 49.8562 34.982C49.8562 35.21 49.7722 35.432 49.6042 35.648L46.8862 39.194L49.7482 42.614C49.9282 42.83 50.0122 43.046 50.0002 43.262C50.0002 43.466 49.9222 43.64 49.7662 43.784C49.6222 43.928 49.4302 44 49.1902 44C49.0702 44 48.9562 43.982 48.8482 43.946C48.7402 43.91 48.6382 43.832 48.5422 43.712L45.6802 40.292L42.9622 43.712C42.7822 43.904 42.5662 44 42.3142 44ZM55.5053 44.072C54.6293 44.072 53.8433 43.856 53.1473 43.424C52.4513 42.98 51.8993 42.386 51.4913 41.642C51.0953 40.886 50.8973 40.034 50.8973 39.086C50.8973 38.138 51.1133 37.286 51.5453 36.53C51.9893 35.774 52.5833 35.18 53.3273 34.748C54.0833 34.304 54.9293 34.082 55.8653 34.082C56.8013 34.082 57.6413 34.304 58.3853 34.748C59.1293 35.18 59.7173 35.774 60.1493 36.53C60.5933 37.286 60.8153 38.138 60.8153 39.086V43.1C60.8153 43.364 60.7253 43.586 60.5453 43.766C60.3773 43.934 60.1613 44.018 59.8973 44.018C59.6333 44.018 59.4113 43.934 59.2313 43.766C59.0633 43.586 58.9793 43.364 58.9793 43.1V42.434C58.5593 42.938 58.0493 43.34 57.4493 43.64C56.8613 43.928 56.2133 44.072 55.5053 44.072ZM55.8653 42.452C56.4773 42.452 57.0233 42.308 57.5033 42.02C57.9833 41.72 58.3613 41.318 58.6373 40.814C58.9133 40.298 59.0513 39.722 59.0513 39.086C59.0513 38.438 58.9133 37.862 58.6373 37.358C58.3613 36.842 57.9833 36.44 57.5033 36.152C57.0233 35.852 56.4773 35.702 55.8653 35.702C55.2653 35.702 54.7193 35.852 54.2273 36.152C53.7473 36.44 53.3633 36.842 53.0753 37.358C52.7993 37.862 52.6613 38.438 52.6613 39.086C52.6613 39.722 52.7993 40.298 53.0753 40.814C53.3633 41.318 53.7473 41.72 54.2273 42.02C54.7193 42.308 55.2653 42.452 55.8653 42.452ZM64.4297 44C64.1657 44 63.9497 43.916 63.7817 43.748C63.6257 43.568 63.5477 43.346 63.5477 43.082V35.072C63.5477 34.796 63.6257 34.574 63.7817 34.406C63.9497 34.238 64.1657 34.154 64.4297 34.154C64.7057 34.154 64.9277 34.238 65.0957 34.406C65.2637 34.574 65.3477 34.796 65.3477 35.072V38.078H70.9097V35.072C70.9097 34.796 70.9937 34.574 71.1617 34.406C71.3417 34.238 71.5637 34.154 71.8277 34.154C72.1037 34.154 72.3197 34.238 72.4757 34.406C72.6317 34.574 72.7097 34.796 72.7097 35.072V43.082C72.7097 43.346 72.6317 43.568 72.4757 43.748C72.3197 43.916 72.1037 44 71.8277 44C71.5637 44 71.3417 43.916 71.1617 43.748C70.9937 43.568 70.9097 43.346 70.9097 43.082V39.698H65.3477V43.082C65.3477 43.346 65.2637 43.568 65.0957 43.748C64.9277 43.916 64.7057 44 64.4297 44ZM78.9999 44.072C78.2439 44.072 77.5659 43.958 76.9659 43.73C76.3779 43.49 75.9099 43.16 75.5619 42.74C75.2259 42.32 75.0579 41.84 75.0579 41.3C75.0579 40.496 75.3999 39.854 76.0839 39.374C76.7679 38.894 77.7219 38.54 78.9459 38.312C79.7619 38.144 80.3139 37.946 80.6019 37.718C80.8899 37.478 81.0339 37.172 81.0339 36.8C81.0339 36.416 80.8419 36.134 80.4579 35.954C80.0739 35.762 79.6299 35.666 79.1259 35.666C78.7059 35.666 78.2859 35.732 77.8659 35.864C77.4579 35.996 77.1159 36.188 76.8399 36.44C76.6599 36.608 76.4619 36.722 76.2459 36.782C76.0299 36.842 75.8559 36.83 75.7239 36.746C75.4959 36.602 75.3519 36.416 75.2919 36.188C75.2439 35.96 75.2979 35.75 75.4539 35.558C75.8139 35.114 76.3179 34.76 76.9659 34.496C77.6259 34.22 78.3519 34.082 79.1439 34.082C79.8159 34.082 80.4279 34.19 80.9799 34.406C81.5319 34.61 81.9699 34.916 82.2939 35.324C82.6299 35.732 82.7979 36.236 82.7979 36.836C82.7979 38.228 81.6579 39.176 79.3779 39.68C78.4299 39.872 77.7759 40.1 77.4159 40.364C77.0559 40.616 76.8819 40.922 76.8939 41.282C76.9179 42.062 77.6199 42.452 78.9999 42.452C79.6239 42.452 80.1519 42.392 80.5839 42.272C81.0279 42.14 81.3759 41.942 81.6279 41.678C81.7959 41.498 81.9879 41.378 82.2039 41.318C82.4199 41.258 82.6419 41.324 82.8699 41.516C83.0739 41.684 83.1759 41.876 83.1759 42.092C83.1759 42.308 83.0859 42.512 82.9059 42.704C82.5099 43.1 81.9579 43.43 81.2499 43.694C80.5419 43.946 79.7919 44.072 78.9999 44.072ZM90.0585 44.072C89.0625 44.072 88.1745 43.862 87.3945 43.442C86.6265 43.01 86.0205 42.422 85.5765 41.678C85.1445 40.922 84.9285 40.058 84.9285 39.086C84.9285 38.102 85.1325 37.238 85.5405 36.494C85.9605 35.738 86.5365 35.15 87.2685 34.73C88.0005 34.298 88.8405 34.082 89.7885 34.082C90.7245 34.082 91.5285 34.292 92.2005 34.712C92.8725 35.12 93.3825 35.69 93.7305 36.422C94.0905 37.142 94.2705 37.976 94.2705 38.924C94.2705 39.152 94.1925 39.344 94.0365 39.5C93.8805 39.644 93.6825 39.716 93.4425 39.716H86.6025C86.7345 40.544 87.1125 41.222 87.7365 41.75C88.3725 42.266 89.1465 42.524 90.0585 42.524C90.4305 42.524 90.8085 42.458 91.1925 42.326C91.5885 42.182 91.9065 42.02 92.1465 41.84C92.3265 41.708 92.5185 41.642 92.7225 41.642C92.9385 41.63 93.1245 41.69 93.2805 41.822C93.4845 42.002 93.5925 42.2 93.6045 42.416C93.6165 42.632 93.5205 42.818 93.3165 42.974C92.9085 43.298 92.3985 43.562 91.7865 43.766C91.1865 43.97 90.6105 44.072 90.0585 44.072ZM89.7885 35.63C88.9005 35.63 88.1865 35.876 87.6465 36.368C87.1065 36.86 86.7645 37.496 86.6205 38.276H92.6145C92.5065 37.508 92.2125 36.878 91.7325 36.386C91.2525 35.882 90.6045 35.63 89.7885 35.63ZM100.302 34.172C100.674 34.172 100.95 34.37 101.13 34.766L104.838 42.812C104.946 43.052 104.958 43.268 104.874 43.46C104.79 43.64 104.646 43.778 104.442 43.874C103.914 44.114 103.524 43.994 103.272 43.514L100.338 36.854L97.3142 43.514C97.2062 43.742 97.0442 43.892 96.8282 43.964C96.6242 44.024 96.3962 43.994 96.1442 43.874C95.9162 43.766 95.7542 43.622 95.6582 43.442C95.5742 43.262 95.5922 43.052 95.7122 42.812L99.4382 34.766C99.6182 34.37 99.9062 34.172 100.302 34.172ZM111.623 44.162C110.723 44.162 109.937 44 109.265 43.676C108.605 43.352 108.089 42.896 107.717 42.308C107.357 41.708 107.177 41.006 107.177 40.202V35.054C107.201 34.802 107.297 34.592 107.465 34.424C107.645 34.244 107.855 34.154 108.095 34.154C108.359 34.154 108.575 34.244 108.743 34.424C108.923 34.592 109.013 34.808 109.013 35.072V37.088H111.965C112.745 37.088 113.441 37.226 114.053 37.502C114.677 37.766 115.169 38.156 115.529 38.672C115.889 39.176 116.069 39.782 116.069 40.49C116.069 41.198 115.883 41.828 115.511 42.38C115.151 42.932 114.641 43.37 113.981 43.694C113.321 44.006 112.535 44.162 111.623 44.162ZM111.605 42.47C112.373 42.47 113.015 42.308 113.531 41.984C114.047 41.648 114.305 41.15 114.305 40.49C114.305 39.866 114.083 39.404 113.639 39.104C113.195 38.792 112.637 38.636 111.965 38.636H109.013V40.166C109.013 40.598 109.127 40.988 109.355 41.336C109.583 41.684 109.889 41.96 110.273 42.164C110.669 42.368 111.113 42.47 111.605 42.47ZM122.961 44.072C122.001 44.072 121.143 43.856 120.387 43.424C119.643 42.98 119.055 42.386 118.623 41.642C118.203 40.886 117.993 40.034 117.993 39.086C117.993 38.114 118.203 37.25 118.623 36.494C119.043 35.738 119.619 35.15 120.351 34.73C121.083 34.298 121.923 34.082 122.871 34.082C124.287 34.082 125.463 34.622 126.399 35.702C126.567 35.894 126.627 36.092 126.579 36.296C126.531 36.5 126.399 36.68 126.183 36.836C126.015 36.956 125.829 36.998 125.625 36.962C125.421 36.914 125.235 36.806 125.067 36.638C124.479 36.014 123.747 35.702 122.871 35.702C121.947 35.702 121.197 36.014 120.621 36.638C120.045 37.25 119.757 38.066 119.757 39.086C119.757 39.734 119.889 40.31 120.153 40.814C120.429 41.318 120.807 41.72 121.287 42.02C121.767 42.308 122.325 42.452 122.961 42.452C123.777 42.452 124.437 42.242 124.941 41.822C125.133 41.666 125.331 41.582 125.535 41.57C125.739 41.546 125.919 41.6 126.075 41.732C126.279 41.9 126.393 42.092 126.417 42.308C126.441 42.512 126.369 42.698 126.201 42.866C125.337 43.67 124.257 44.072 122.961 44.072ZM130.172 44.018C129.908 44.018 129.698 43.934 129.542 43.766C129.386 43.586 129.308 43.364 129.308 43.1V35.072C129.308 34.796 129.386 34.574 129.542 34.406C129.698 34.238 129.908 34.154 130.172 34.154C130.448 34.154 130.67 34.238 130.838 34.406C131.018 34.574 131.108 34.796 131.108 35.072V38.078H132.476L135.734 34.442C135.89 34.274 136.106 34.178 136.382 34.154C136.67 34.13 136.892 34.19 137.048 34.334C137.228 34.502 137.33 34.694 137.354 34.91C137.378 35.114 137.312 35.3 137.156 35.468L133.898 38.96L137.354 42.668C137.51 42.824 137.588 43.01 137.588 43.226C137.588 43.43 137.492 43.616 137.3 43.784C137.144 43.928 136.922 44 136.634 44C136.358 43.988 136.142 43.904 135.986 43.748L132.278 39.77H131.108V43.1C131.108 43.364 131.018 43.586 130.838 43.766C130.67 43.934 130.448 44.018 130.172 44.018ZM143.566 44.072C142.57 44.072 141.682 43.862 140.902 43.442C140.134 43.01 139.528 42.422 139.084 41.678C138.652 40.922 138.436 40.058 138.436 39.086C138.436 38.102 138.64 37.238 139.048 36.494C139.468 35.738 140.044 35.15 140.776 34.73C141.508 34.298 142.348 34.082 143.296 34.082C144.232 34.082 145.036 34.292 145.708 34.712C146.38 35.12 146.89 35.69 147.238 36.422C147.598 37.142 147.778 37.976 147.778 38.924C147.778 39.152 147.7 39.344 147.544 39.5C147.388 39.644 147.19 39.716 146.95 39.716H140.11C140.242 40.544 140.62 41.222 141.244 41.75C141.88 42.266 142.654 42.524 143.566 42.524C143.938 42.524 144.316 42.458 144.7 42.326C145.096 42.182 145.414 42.02 145.654 41.84C145.834 41.708 146.026 41.642 146.23 41.642C146.446 41.63 146.632 41.69 146.788 41.822C146.992 42.002 147.1 42.2 147.112 42.416C147.124 42.632 147.028 42.818 146.824 42.974C146.416 43.298 145.906 43.562 145.294 43.766C144.694 43.97 144.118 44.072 143.566 44.072ZM143.296 35.63C142.408 35.63 141.694 35.876 141.154 36.368C140.614 36.86 140.272 37.496 140.128 38.276H146.122C146.014 37.508 145.72 36.878 145.24 36.386C144.76 35.882 144.112 35.63 143.296 35.63Z" fill="white"/>
</svg>
