<svg width="24" height="14" viewBox="0 0 24 14" fill="none" xmlns="http://www.w3.org/2000/svg">
<path fill-rule="evenodd" clip-rule="evenodd" d="M23.45 0.948015C23.616 0.402015 23.45 1.52588e-05 22.655 1.52588e-05H20.03C19.362 1.52588e-05 19.054 0.347015 18.887 0.730015C18.887 0.730015 17.552 3.92602 15.661 6.00202C15.049 6.60402 14.771 6.79502 14.437 6.79502C14.27 6.79502 14.019 6.60402 14.019 6.05702V0.948015C14.019 0.292015 13.835 1.52588e-05 13.279 1.52588e-05H9.151C8.734 1.52588e-05 8.483 0.304015 8.483 0.593015C8.483 1.21402 9.429 1.35802 9.526 3.10602V6.90402C9.526 7.73702 9.373 7.88802 9.039 7.88802C8.149 7.88802 5.984 4.67702 4.699 1.00302C4.45 0.288015 4.198 1.52588e-05 3.527 1.52588e-05H0.9C0.15 1.52588e-05 0 0.347015 0 0.730015C0 1.41202 0.89 4.80002 4.145 9.28102C6.315 12.341 9.37 14 12.153 14C13.822 14 14.028 13.632 14.028 12.997V10.684C14.028 9.94702 14.186 9.80002 14.715 9.80002C15.105 9.80002 15.772 9.99202 17.33 11.467C19.11 13.216 19.403 14 20.405 14H23.03C23.78 14 24.156 13.632 23.94 12.904C23.702 12.18 22.852 11.129 21.725 9.88202C21.113 9.17202 20.195 8.40702 19.916 8.02402C19.527 7.53302 19.638 7.31402 19.916 6.87702C19.916 6.87702 23.116 2.45102 23.449 0.948015H23.45Z" fill="#1E1E1E"/>
</svg>
